<?xml version="1.0" encoding="UTF-8"?>
<svg xmlns="http://www.w3.org/2000/svg" xmlns:xlink="http://www.w3.org/1999/xlink" width="152px" height="40px" viewBox="0 0 152 40" version="1.1">
<g id="surface1">
<path style=" stroke:none;fill-rule:nonzero;fill:rgb(20.784314%,38.823529%,53.333333%);fill-opacity:1;" d="M 90.878906 0 L 98.761719 0 L 98.761719 7.078125 L 90.878906 7.078125 Z M 90.878906 0 "/>
<path style=" stroke:none;fill-rule:nonzero;fill:rgb(22.352941%,70.980392%,29.019608%);fill-opacity:1;" d="M 126.238281 0 L 133.960938 0 L 133.960938 7.519531 L 126.238281 7.519531 Z M 126.238281 0 "/>
<path style=" stroke:none;fill-rule:nonzero;fill:rgb(22.352941%,70.980392%,29.019608%);fill-opacity:1;" d="M 102.71875 30.480469 L 110.441406 30.480469 L 110.441406 38 L 102.71875 38 Z M 102.71875 30.480469 "/>
<path style=" stroke:none;fill-rule:nonzero;fill:rgb(22.352941%,70.980392%,29.019608%);fill-opacity:1;" d="M 90.878906 9.320312 L 98.761719 9.320312 L 98.761719 16.839844 L 90.878906 16.839844 Z M 90.878906 9.320312 "/>
<path style=" stroke:none;fill-rule:nonzero;fill:rgb(20.784314%,38.823529%,53.333333%);fill-opacity:1;" d="M 90.878906 19.078125 L 90.878906 27.960938 C 90.878906 30.039062 89.761719 31.320312 87.878906 31.320312 C 86.121094 31.320312 84.839844 30.199219 84.839844 27.921875 L 84.839844 0 L 83.71875 0 C 79 0 76.480469 3.039062 76.480469 8.960938 L 76.480469 28.160156 C 76.480469 35.359375 80.601562 38.601562 87.398438 38.601562 C 93.800781 38.601562 98.800781 34.921875 98.761719 28 L 98.761719 19.121094 L 90.878906 19.121094 Z M 90.878906 19.078125 "/>
<path style=" stroke:none;fill-rule:nonzero;fill:rgb(23.529412%,61.176471%,84.313725%);fill-opacity:1;" d="M 63.519531 0 L 58.519531 0 C 53.800781 0 51.28125 3.039062 51.28125 8.960938 L 51.28125 38.039062 L 59.601562 38.039062 L 59.601562 24.519531 L 63.28125 24.519531 C 70.160156 24.519531 73.078125 19.71875 73.078125 11.761719 C 73.078125 4 69.761719 0 63.519531 0 Z M 62 17.761719 L 59.601562 17.761719 L 59.601562 6.839844 L 62.039062 6.839844 C 64 6.839844 64.960938 8.320312 64.960938 12 C 64.960938 15.921875 63.921875 17.761719 62 17.761719 Z M 62 17.761719 "/>
<path style=" stroke:none;fill-rule:nonzero;fill:rgb(23.529412%,61.176471%,84.313725%);fill-opacity:1;" d="M 12.238281 0 L 7.238281 0 C 2.519531 0 0 3.039062 0 8.960938 L 0 38.039062 L 8.320312 38.039062 L 8.320312 24.519531 L 12 24.519531 C 18.878906 24.519531 21.800781 19.71875 21.800781 11.761719 C 21.800781 4 18.480469 0 12.238281 0 Z M 10.679688 17.761719 L 8.28125 17.761719 L 8.28125 6.839844 L 10.71875 6.839844 C 12.679688 6.839844 13.640625 8.320312 13.640625 12 C 13.679688 15.921875 12.601562 17.761719 10.679688 17.761719 Z M 10.679688 17.761719 "/>
<path style=" stroke:none;fill-rule:nonzero;fill:rgb(23.529412%,61.176471%,84.313725%);fill-opacity:1;" d="M 46.078125 0 C 41.359375 0 38.839844 3.039062 38.839844 8.960938 L 38.839844 15.160156 L 32.921875 15.160156 L 32.921875 0 L 31.839844 0 C 27.121094 0 24.601562 3.039062 24.601562 8.960938 L 24.601562 38.039062 L 32.921875 38.039062 L 32.921875 22.679688 L 38.839844 22.679688 L 38.839844 38.039062 L 47.121094 38.039062 L 47.121094 0.0390625 L 46.078125 0.0390625 Z M 46.078125 0 "/>
<path style=" stroke:none;fill-rule:nonzero;fill:rgb(20.784314%,38.823529%,53.333333%);fill-opacity:1;" d="M 151.238281 15.558594 L 151.238281 9.601562 L 147.359375 9.601562 L 147.359375 3.160156 L 144.921875 3.160156 C 141.519531 3.160156 139.679688 5.359375 139.679688 9.601562 L 137.160156 9.601562 L 137.160156 15.558594 L 139.679688 15.558594 L 139.679688 32.359375 C 139.679688 36.558594 142.679688 38.441406 146.441406 38.441406 C 147.921875 38.441406 149.800781 38.160156 151.199219 37.679688 L 151.199219 31.558594 C 150.601562 31.679688 149.761719 31.71875 148.960938 31.71875 C 147.71875 31.71875 147.359375 31.121094 147.359375 30.078125 L 147.359375 15.558594 Z M 151.238281 15.558594 "/>
<path style=" stroke:none;fill-rule:nonzero;fill:rgb(20.784314%,38.823529%,53.333333%);fill-opacity:1;" d="M 116.359375 8.679688 C 113.839844 8.679688 111.839844 9.761719 110.441406 11.761719 L 110.441406 9.320312 L 107.921875 9.320312 C 104.519531 9.320312 102.679688 11.519531 102.679688 15.761719 L 102.679688 28.238281 L 110.398438 28.238281 L 110.398438 18.121094 C 110.398438 16.398438 111.238281 15.121094 112.519531 15.121094 C 114.238281 15.121094 114.601562 16.441406 114.601562 17.640625 L 114.601562 38 L 122.28125 38 L 122.28125 14.761719 C 122.359375 11 119.679688 8.679688 116.359375 8.679688 Z M 116.359375 8.679688 "/>
<path style=" stroke:none;fill-rule:nonzero;fill:rgb(20.784314%,38.823529%,53.333333%);fill-opacity:1;" d="M 131.480469 9.601562 C 128.078125 9.601562 126.238281 11.800781 126.238281 16.039062 L 126.238281 38 L 133.960938 38 L 133.960938 9.601562 Z M 131.480469 9.601562 "/>
</g>
</svg>
